{"glyphs":{"0":{"ha":694,"x_min":0,"x_max":608,"o":"m 347 87 l 434 87 l 434 0 l 347 0 l 260 0 l 174 0 l 174 87 l 260 87 l 347 87 m 434 87 l 434 174 l 521 174 l 521 87 l 434 87 m 174 87 l 87 87 l 87 174 l 174 174 l 174 87 m 521 174 l 521 260 l 521 347 l 521 434 l 521 521 l 521 608 l 521 694 l 608 694 l 608 608 l 608 521 l 608 434 l 608 347 l 608 260 l 608 174 l 521 174 m 87 174 l 0 174 l 0 260 l 0 347 l 0 434 l 0 521 l 0 608 l 0 694 l 87 694 l 87 608 l 87 521 l 87 434 l 87 347 l 87 260 l 87 174 m 521 694 l 434 694 l 434 781 l 521 781 l 521 694 m 87 694 l 87 781 l 174 781 l 174 694 l 87 694 m 434 781 l 347 781 l 260 781 l 174 781 l 174 868 l 260 868 l 347 868 l 434 868 l 434 781 z "},"1":{"ha":521,"x_min":0,"x_max":434,"o":"m 0 608 l 0 694 l 87 694 l 87 608 l 0 608 m 347 87 l 434 87 l 434 0 l 347 0 l 260 0 l 174 0 l 87 0 l 0 0 l 0 87 l 87 87 l 174 87 l 174 174 l 174 260 l 174 347 l 174 434 l 174 521 l 174 608 l 174 694 l 87 694 l 87 781 l 174 781 l 174 868 l 260 868 l 260 781 l 260 694 l 260 608 l 260 521 l 260 434 l 260 347 l 260 260 l 260 174 l 260 87 l 347 87 z "},"2":{"ha":521,"x_min":0,"x_max":434,"o":"m 0 694 l 0 781 l 87 781 l 87 694 l 0 694 m 347 0 l 260 0 l 174 0 l 87 0 l 0 0 l 0 87 l 0 174 l 0 260 l 87 260 l 87 174 l 87 87 l 174 87 l 260 87 l 347 87 l 347 174 l 434 174 l 434 87 l 434 0 l 347 0 m 87 260 l 87 347 l 174 347 l 174 260 l 87 260 m 174 347 l 174 434 l 260 434 l 260 347 l 174 347 m 260 434 l 260 521 l 347 521 l 347 434 l 260 434 m 347 521 l 347 608 l 347 694 l 347 781 l 434 781 l 434 694 l 434 608 l 434 521 l 347 521 m 347 781 l 260 781 l 174 781 l 87 781 l 87 868 l 174 868 l 260 868 l 347 868 l 347 781 z "},"3":{"ha":521,"x_min":0,"x_max":434,"o":"m 0 608 l 0 694 l 0 781 l 87 781 l 87 694 l 87 608 l 0 608 m 260 87 l 347 87 l 347 0 l 260 0 l 174 0 l 87 0 l 87 87 l 174 87 l 260 87 m 347 87 l 347 174 l 347 260 l 347 347 l 347 434 l 434 434 l 434 347 l 434 260 l 434 174 l 434 87 l 347 87 m 87 87 l 0 87 l 0 174 l 0 260 l 87 260 l 87 174 l 87 87 m 347 434 l 260 434 l 174 434 l 174 521 l 260 521 l 347 521 l 347 434 m 347 521 l 347 608 l 347 694 l 347 781 l 434 781 l 434 694 l 434 608 l 434 521 l 347 521 m 347 781 l 260 781 l 174 781 l 87 781 l 87 868 l 174 868 l 260 868 l 347 868 l 347 781 z "},"4":{"ha":608,"x_min":0,"x_max":521,"o":"m 434 0 l 347 0 l 260 0 l 260 87 l 347 87 l 347 174 l 347 260 l 347 347 l 347 434 l 260 434 l 174 434 l 87 434 l 0 434 l 0 521 l 87 521 l 87 608 l 174 608 l 174 694 l 260 694 l 260 781 l 347 781 l 347 868 l 434 868 l 434 781 l 434 694 l 434 608 l 434 521 l 521 521 l 521 434 l 434 434 l 434 347 l 434 260 l 434 174 l 434 87 l 521 87 l 521 0 l 434 0 m 260 521 l 347 521 l 347 608 l 347 694 l 260 694 l 260 608 l 174 608 l 174 521 l 260 521 z "},"5":{"ha":521,"x_min":0,"x_max":434,"o":"m 347 694 l 347 781 l 260 781 l 174 781 l 87 781 l 87 694 l 87 608 l 87 521 l 174 521 l 260 521 l 347 521 l 347 434 l 434 434 l 434 347 l 434 260 l 434 174 l 434 87 l 347 87 l 347 0 l 260 0 l 174 0 l 87 0 l 87 87 l 174 87 l 260 87 l 347 87 l 347 174 l 347 260 l 347 347 l 347 434 l 260 434 l 174 434 l 87 434 l 0 434 l 0 521 l 0 608 l 0 694 l 0 781 l 0 868 l 87 868 l 174 868 l 260 868 l 347 868 l 434 868 l 434 781 l 434 694 l 347 694 m 87 87 l 0 87 l 0 174 l 0 260 l 87 260 l 87 174 l 87 87 z "},"6":{"ha":521,"x_min":0,"x_max":434,"o":"m 347 694 l 347 781 l 434 781 l 434 694 l 347 694 m 260 87 l 347 87 l 347 0 l 260 0 l 174 0 l 87 0 l 87 87 l 174 87 l 260 87 m 347 87 l 347 174 l 347 260 l 347 347 l 347 434 l 434 434 l 434 347 l 434 260 l 434 174 l 434 87 l 347 87 m 87 87 l 0 87 l 0 174 l 0 260 l 0 347 l 0 434 l 0 521 l 0 608 l 0 694 l 0 781 l 87 781 l 87 694 l 87 608 l 87 521 l 87 434 l 174 434 l 174 347 l 87 347 l 87 260 l 87 174 l 87 87 m 347 434 l 260 434 l 174 434 l 174 521 l 260 521 l 347 521 l 347 434 m 347 781 l 260 781 l 174 781 l 87 781 l 87 868 l 174 868 l 260 868 l 347 868 l 347 781 z "},"7":{"ha":521,"x_min":0,"x_max":434,"o":"m 174 0 l 174 87 l 174 174 l 174 260 l 174 347 l 174 434 l 260 434 l 260 347 l 260 260 l 260 174 l 260 87 l 260 0 l 174 0 m 0 694 l 0 781 l 0 868 l 87 868 l 174 868 l 260 868 l 347 868 l 434 868 l 434 781 l 434 694 l 434 608 l 347 608 l 347 521 l 347 434 l 260 434 l 260 521 l 260 608 l 347 608 l 347 694 l 347 781 l 260 781 l 174 781 l 87 781 l 87 694 l 0 694 z "},"8":{"ha":521,"x_min":0,"x_max":434,"o":"m 260 87 l 347 87 l 347 0 l 260 0 l 174 0 l 87 0 l 87 87 l 174 87 l 260 87 m 347 87 l 347 174 l 347 260 l 347 347 l 347 434 l 434 434 l 434 347 l 434 260 l 434 174 l 434 87 l 347 87 m 87 87 l 0 87 l 0 174 l 0 260 l 0 347 l 0 434 l 87 434 l 87 347 l 87 260 l 87 174 l 87 87 m 347 434 l 260 434 l 174 434 l 87 434 l 87 521 l 174 521 l 260 521 l 347 521 l 347 434 m 347 521 l 347 608 l 347 694 l 347 781 l 434 781 l 434 694 l 434 608 l 434 521 l 347 521 m 87 521 l 0 521 l 0 608 l 0 694 l 0 781 l 87 781 l 87 694 l 87 608 l 87 521 m 347 781 l 260 781 l 174 781 l 87 781 l 87 868 l 174 868 l 260 868 l 347 868 l 347 781 z "},"9":{"ha":521,"x_min":0,"x_max":434,"o":"m 174 0 l 174 87 l 260 87 l 260 0 l 174 0 m 260 87 l 260 174 l 260 260 l 347 260 l 347 174 l 347 87 l 260 87 m 347 260 l 347 347 l 347 434 l 260 434 l 260 347 l 174 347 l 87 347 l 87 434 l 174 434 l 260 434 l 260 521 l 347 521 l 347 608 l 347 694 l 347 781 l 434 781 l 434 694 l 434 608 l 434 521 l 434 434 l 434 347 l 434 260 l 347 260 m 87 434 l 0 434 l 0 521 l 0 608 l 0 694 l 0 781 l 87 781 l 87 694 l 87 608 l 87 521 l 87 434 m 347 781 l 260 781 l 174 781 l 87 781 l 87 868 l 174 868 l 260 868 l 347 868 l 347 781 z "}," ":{"ha":434,"x_min":0,"x_max":0,"o":""},"!":{"ha":174,"x_min":0,"x_max":87,"o":"m 0 0 l 0 87 l 87 87 l 87 0 l 0 0 m 0 260 l 0 347 l 0 434 l 0 521 l 0 608 l 0 694 l 0 781 l 0 868 l 87 868 l 87 781 l 87 694 l 87 608 l 87 521 l 87 434 l 87 347 l 87 260 l 0 260 z "},"\"":{"ha":521,"x_min":0,"x_max":434,"o":"m 260 608 l 260 694 l 347 694 l 347 608 l 260 608 m 0 608 l 0 694 l 87 694 l 87 608 l 0 608 m 347 694 l 347 781 l 347 868 l 434 868 l 434 781 l 434 694 l 347 694 m 87 694 l 87 781 l 87 868 l 174 868 l 174 781 l 174 694 l 87 694 z "},"#":{"ha":608,"x_min":0,"x_max":521,"o":"m 347 347 l 347 434 l 260 434 l 174 434 l 174 347 l 87 347 l 87 434 l 0 434 l 0 521 l 87 521 l 87 608 l 87 694 l 0 694 l 0 781 l 87 781 l 87 868 l 174 868 l 174 781 l 260 781 l 347 781 l 347 868 l 434 868 l 434 781 l 521 781 l 521 694 l 434 694 l 434 608 l 434 521 l 521 521 l 521 434 l 434 434 l 434 347 l 347 347 m 260 521 l 347 521 l 347 608 l 347 694 l 260 694 l 174 694 l 174 608 l 174 521 l 260 521 z "},"$":{"ha":521,"x_min":0,"x_max":434,"o":"m 174 -87 l 174 0 l 174 87 l 87 87 l 87 174 l 174 174 l 174 260 l 174 347 l 174 434 l 87 434 l 87 521 l 0 521 l 0 608 l 0 694 l 0 781 l 87 781 l 87 868 l 174 868 l 174 955 l 260 955 l 260 868 l 347 868 l 347 781 l 434 781 l 434 694 l 347 694 l 347 781 l 260 781 l 260 694 l 260 608 l 260 521 l 347 521 l 347 434 l 434 434 l 434 347 l 434 260 l 434 174 l 434 87 l 347 87 l 347 174 l 347 260 l 347 347 l 347 434 l 260 434 l 260 347 l 260 260 l 260 174 l 260 87 l 347 87 l 347 0 l 260 0 l 260 -87 l 174 -87 m 87 174 l 0 174 l 0 260 l 87 260 l 87 174 m 174 521 l 174 608 l 174 694 l 174 781 l 87 781 l 87 694 l 87 608 l 87 521 l 174 521 z "},"%":{"ha":608,"x_min":0,"x_max":521,"o":"m 347 0 l 347 87 l 434 87 l 434 0 l 347 0 m 0 0 l 0 87 l 0 174 l 87 174 l 87 87 l 87 0 l 0 0 m 87 521 l 87 608 l 174 608 l 174 521 l 87 521 m 434 87 l 434 174 l 434 260 l 521 260 l 521 174 l 521 87 l 434 87 m 347 87 l 260 87 l 260 174 l 260 260 l 347 260 l 347 174 l 347 87 m 87 174 l 87 260 l 87 347 l 174 347 l 174 260 l 174 174 l 87 174 m 434 260 l 347 260 l 347 347 l 434 347 l 434 260 m 174 347 l 174 434 l 260 434 l 260 347 l 174 347 m 260 434 l 260 521 l 347 521 l 347 434 l 260 434 m 347 521 l 347 608 l 347 694 l 434 694 l 434 608 l 434 521 l 347 521 m 174 608 l 174 694 l 174 781 l 260 781 l 260 694 l 260 608 l 174 608 m 87 608 l 0 608 l 0 694 l 0 781 l 87 781 l 87 694 l 87 608 m 434 694 l 434 781 l 434 868 l 521 868 l 521 781 l 521 694 l 434 694 m 174 781 l 87 781 l 87 868 l 174 868 l 174 781 z "},"&":{"ha":608,"x_min":0,"x_max":521,"o":"m 347 694 l 347 781 l 434 781 l 434 694 l 347 694 m 260 87 l 347 87 l 347 0 l 260 0 l 174 0 l 87 0 l 87 87 l 174 87 l 260 87 m 347 87 l 347 174 l 347 260 l 347 347 l 434 347 l 434 260 l 434 174 l 434 87 l 347 87 m 87 87 l 0 87 l 0 174 l 0 260 l 0 347 l 0 434 l 87 434 l 87 347 l 87 260 l 87 174 l 87 87 m 434 347 l 434 434 l 521 434 l 521 347 l 434 347 m 174 521 l 260 521 l 260 434 l 174 434 l 87 434 l 87 521 l 174 521 m 87 521 l 0 521 l 0 608 l 0 694 l 0 781 l 87 781 l 87 694 l 87 608 l 87 521 m 347 781 l 260 781 l 174 781 l 87 781 l 87 868 l 174 868 l 260 868 l 347 868 l 347 781 z "},"'":{"ha":260,"x_min":0,"x_max":174,"o":"m 0 608 l 0 694 l 87 694 l 87 608 l 0 608 m 87 694 l 87 781 l 87 868 l 174 868 l 174 781 l 174 694 l 87 694 z "},"(":{"ha":347,"x_min":0,"x_max":260,"o":"m 174 -87 l 174 0 l 260 0 l 260 -87 l 174 -87 m 174 0 l 87 0 l 87 87 l 174 87 l 174 0 m 87 87 l 0 87 l 0 174 l 0 260 l 0 347 l 0 434 l 0 521 l 0 608 l 0 694 l 0 781 l 87 781 l 87 694 l 87 608 l 87 521 l 87 434 l 87 347 l 87 260 l 87 174 l 87 87 m 87 781 l 87 868 l 174 868 l 174 781 l 87 781 m 174 868 l 174 955 l 260 955 l 260 868 l 174 868 z "},")":{"ha":347,"x_min":0,"x_max":260,"o":"m 0 -87 l 0 0 l 87 0 l 87 -87 l 0 -87 m 87 0 l 87 87 l 174 87 l 174 0 l 87 0 m 174 87 l 174 174 l 174 260 l 174 347 l 174 434 l 174 521 l 174 608 l 174 694 l 174 781 l 260 781 l 260 694 l 260 608 l 260 521 l 260 434 l 260 347 l 260 260 l 260 174 l 260 87 l 174 87 m 174 781 l 87 781 l 87 868 l 174 868 l 174 781 m 87 868 l 0 868 l 0 955 l 87 955 l 87 868 z "},"*":{"ha":347,"x_min":0,"x_max":260,"o":"m 174 608 l 174 694 l 260 694 l 260 608 l 174 608 m 0 608 l 0 694 l 87 694 l 87 608 l 0 608 m 174 694 l 87 694 l 87 781 l 174 781 l 174 694 m 174 781 l 174 868 l 260 868 l 260 781 l 174 781 m 87 781 l 0 781 l 0 868 l 87 868 l 87 781 z "},"+":{"ha":521,"x_min":0,"x_max":434,"o":"m 174 174 l 174 260 l 174 347 l 87 347 l 0 347 l 0 434 l 87 434 l 174 434 l 174 521 l 174 608 l 260 608 l 260 521 l 260 434 l 347 434 l 434 434 l 434 347 l 347 347 l 260 347 l 260 260 l 260 174 l 174 174 z "},",":{"ha":260,"x_min":0,"x_max":174,"o":"m 0 -87 l 0 0 l 87 0 l 87 -87 l 0 -87 m 87 0 l 87 87 l 87 174 l 174 174 l 174 87 l 174 0 l 87 0 z "},"-":{"ha":694,"x_min":0,"x_max":608,"o":"m 521 434 l 608 434 l 608 347 l 521 347 l 434 347 l 347 347 l 260 347 l 174 347 l 87 347 l 0 347 l 0 434 l 87 434 l 174 434 l 260 434 l 347 434 l 434 434 l 521 434 z "},".":{"ha":174,"x_min":0,"x_max":87,"o":"m 0 0 l 0 87 l 87 87 l 87 0 l 0 0 z "},"/":{"ha":608,"x_min":0,"x_max":521,"o":"m 0 0 l 0 87 l 0 174 l 87 174 l 87 87 l 87 0 l 0 0 m 87 174 l 87 260 l 87 347 l 174 347 l 174 260 l 174 174 l 87 174 m 174 347 l 174 434 l 260 434 l 260 347 l 174 347 m 260 434 l 260 521 l 347 521 l 347 434 l 260 434 m 347 521 l 347 608 l 347 694 l 434 694 l 434 608 l 434 521 l 347 521 m 434 694 l 434 781 l 434 868 l 521 868 l 521 781 l 521 694 l 434 694 z "},":":{"ha":174,"x_min":0,"x_max":87,"o":"m 0 0 l 0 87 l 87 87 l 87 0 l 0 0 m 0 347 l 0 434 l 87 434 l 87 347 l 0 347 z "},";":{"ha":260,"x_min":0,"x_max":174,"o":"m 0 -87 l 0 0 l 87 0 l 87 -87 l 0 -87 m 87 347 l 87 434 l 174 434 l 174 347 l 87 347 m 87 0 l 87 87 l 87 174 l 174 174 l 174 87 l 174 0 l 87 0 z "},"<":{"ha":521,"x_min":0,"x_max":434,"o":"m 347 260 l 434 260 l 434 174 l 347 174 l 260 174 l 260 260 l 347 260 m 260 260 l 174 260 l 87 260 l 87 347 l 174 347 l 260 347 l 260 260 m 87 347 l 0 347 l 0 434 l 87 434 l 87 347 m 174 521 l 260 521 l 260 434 l 174 434 l 87 434 l 87 521 l 174 521 m 347 608 l 434 608 l 434 521 l 347 521 l 260 521 l 260 608 l 347 608 z "},"=":{"ha":694,"x_min":0,"x_max":608,"o":"m 521 347 l 608 347 l 608 260 l 521 260 l 434 260 l 347 260 l 260 260 l 174 260 l 87 260 l 0 260 l 0 347 l 87 347 l 174 347 l 260 347 l 347 347 l 434 347 l 521 347 m 521 608 l 608 608 l 608 521 l 521 521 l 434 521 l 347 521 l 260 521 l 174 521 l 87 521 l 0 521 l 0 608 l 87 608 l 174 608 l 260 608 l 347 608 l 434 608 l 521 608 z "},">":{"ha":521,"x_min":0,"x_max":434,"o":"m 87 260 l 174 260 l 174 174 l 87 174 l 0 174 l 0 260 l 87 260 m 260 347 l 347 347 l 347 260 l 260 260 l 174 260 l 174 347 l 260 347 m 347 347 l 347 434 l 434 434 l 434 347 l 347 347 m 347 434 l 260 434 l 174 434 l 174 521 l 260 521 l 347 521 l 347 434 m 174 521 l 87 521 l 0 521 l 0 608 l 87 608 l 174 608 l 174 521 z "},"?":{"ha":521,"x_min":0,"x_max":434,"o":"m 174 0 l 174 87 l 260 87 l 260 0 l 174 0 m 174 260 l 174 347 l 174 434 l 174 521 l 260 521 l 260 434 l 260 347 l 260 260 l 174 260 m 0 694 l 0 781 l 87 781 l 87 694 l 0 694 m 260 521 l 260 608 l 347 608 l 347 521 l 260 521 m 347 608 l 347 694 l 347 781 l 434 781 l 434 694 l 434 608 l 347 608 m 347 781 l 260 781 l 174 781 l 87 781 l 87 868 l 174 868 l 260 868 l 347 868 l 347 781 z "},"@":{"ha":955,"x_min":0,"x_max":868,"o":"m 608 0 l 694 0 l 694 -87 l 608 -87 l 521 -87 l 434 -87 l 347 -87 l 260 -87 l 260 0 l 347 0 l 434 0 l 521 0 l 608 0 m 694 0 l 694 87 l 781 87 l 781 0 l 694 0 m 260 0 l 174 0 l 174 87 l 260 87 l 260 0 m 781 87 l 781 174 l 868 174 l 868 87 l 781 87 m 174 87 l 87 87 l 87 174 l 174 174 l 174 87 m 608 260 l 694 260 l 694 174 l 608 174 l 521 174 l 521 260 l 608 260 m 347 260 l 434 260 l 434 174 l 347 174 l 260 174 l 260 260 l 347 260 m 87 174 l 0 174 l 0 260 l 0 347 l 0 434 l 0 521 l 0 608 l 87 608 l 87 521 l 87 434 l 87 347 l 87 260 l 87 174 m 694 260 l 694 347 l 694 434 l 694 521 l 694 608 l 694 694 l 781 694 l 781 608 l 781 521 l 781 434 l 781 347 l 781 260 l 694 260 m 521 260 l 434 260 l 434 347 l 434 434 l 521 434 l 521 347 l 521 260 m 260 260 l 174 260 l 174 347 l 174 434 l 260 434 l 260 347 l 260 260 m 521 434 l 521 521 l 521 608 l 608 608 l 608 521 l 608 434 l 521 434 m 260 434 l 260 521 l 260 608 l 347 608 l 347 521 l 347 434 l 260 434 m 521 608 l 434 608 l 347 608 l 347 694 l 434 694 l 521 694 l 521 608 m 87 608 l 87 694 l 174 694 l 174 608 l 87 608 m 694 694 l 608 694 l 608 781 l 694 781 l 694 694 m 174 694 l 174 781 l 260 781 l 260 694 l 174 694 m 608 781 l 521 781 l 434 781 l 347 781 l 260 781 l 260 868 l 347 868 l 434 868 l 521 868 l 608 868 l 608 781 z "},"A":{"ha":521,"x_min":0,"x_max":434,"o":"m 347 0 l 347 87 l 347 174 l 347 260 l 347 347 l 260 347 l 174 347 l 87 347 l 87 260 l 87 174 l 87 87 l 87 0 l 0 0 l 0 87 l 0 174 l 0 260 l 0 347 l 0 434 l 0 521 l 0 608 l 0 694 l 87 694 l 87 608 l 87 521 l 87 434 l 174 434 l 260 434 l 347 434 l 347 521 l 347 608 l 347 694 l 347 781 l 434 781 l 434 694 l 434 608 l 434 521 l 434 434 l 434 347 l 434 260 l 434 174 l 434 87 l 434 0 l 347 0 m 87 694 l 87 781 l 174 781 l 174 694 l 87 694 m 347 781 l 260 781 l 174 781 l 174 868 l 260 868 l 347 868 l 347 781 z "},"B":{"ha":521,"x_min":0,"x_max":434,"o":"m 174 87 l 260 87 l 260 174 l 347 174 l 347 260 l 347 347 l 260 347 l 174 347 l 87 347 l 87 260 l 87 174 l 87 87 l 174 87 m 174 0 l 87 0 l 0 0 l 0 87 l 0 174 l 0 260 l 0 347 l 0 434 l 0 521 l 0 608 l 0 694 l 0 781 l 0 868 l 87 868 l 174 868 l 260 868 l 347 868 l 347 781 l 434 781 l 434 694 l 434 608 l 434 521 l 347 521 l 347 608 l 347 694 l 347 781 l 260 781 l 174 781 l 87 781 l 87 694 l 87 608 l 87 521 l 87 434 l 174 434 l 260 434 l 260 521 l 347 521 l 347 434 l 347 347 l 434 347 l 434 260 l 434 174 l 347 174 l 347 87 l 260 87 l 260 0 l 174 0 z "},"C":{"ha":521,"x_min":0,"x_max":434,"o":"m 347 694 l 347 781 l 434 781 l 434 694 l 347 694 m 174 87 l 260 87 l 260 0 l 174 0 l 87 0 l 87 87 l 174 87 m 260 87 l 260 174 l 347 174 l 347 87 l 260 87 m 87 87 l 0 87 l 0 174 l 0 260 l 0 347 l 0 434 l 0 521 l 0 608 l 0 694 l 0 781 l 87 781 l 87 694 l 87 608 l 87 521 l 87 434 l 87 347 l 87 260 l 87 174 l 87 87 m 347 174 l 347 260 l 434 260 l 434 174 l 347 174 m 347 781 l 260 781 l 174 781 l 87 781 l 87 868 l 174 868 l 260 868 l 347 868 l 347 781 z "},"D":{"ha":521,"x_min":0,"x_max":434,"o":"m 260 87 l 347 87 l 347 174 l 347 260 l 347 347 l 347 434 l 347 521 l 347 608 l 347 694 l 260 694 l 260 781 l 174 781 l 87 781 l 87 694 l 87 608 l 87 521 l 87 434 l 87 347 l 87 260 l 87 174 l 87 87 l 174 87 l 260 87 m 260 0 l 174 0 l 87 0 l 0 0 l 0 87 l 0 174 l 0 260 l 0 347 l 0 434 l 0 521 l 0 608 l 0 694 l 0 781 l 0 868 l 87 868 l 174 868 l 260 868 l 260 781 l 347 781 l 347 694 l 434 694 l 434 608 l 434 521 l 434 434 l 434 347 l 434 260 l 434 174 l 434 87 l 347 87 l 347 0 l 260 0 z "},"E":{"ha":521,"x_min":0,"x_max":434,"o":"m 347 87 l 434 87 l 434 0 l 347 0 l 260 0 l 174 0 l 87 0 l 0 0 l 0 87 l 0 174 l 0 260 l 0 347 l 0 434 l 0 521 l 0 608 l 0 694 l 0 781 l 0 868 l 87 868 l 174 868 l 260 868 l 347 868 l 434 868 l 434 781 l 347 781 l 260 781 l 174 781 l 87 781 l 87 694 l 87 608 l 87 521 l 174 521 l 260 521 l 347 521 l 347 434 l 260 434 l 174 434 l 87 434 l 87 347 l 87 260 l 87 174 l 87 87 l 174 87 l 260 87 l 347 87 z "},"F":{"ha":521,"x_min":0,"x_max":434,"o":"m 0 0 l 0 87 l 0 174 l 0 260 l 0 347 l 0 434 l 0 521 l 0 608 l 0 694 l 0 781 l 0 868 l 87 868 l 174 868 l 260 868 l 347 868 l 434 868 l 434 781 l 347 781 l 260 781 l 174 781 l 87 781 l 87 694 l 87 608 l 87 521 l 174 521 l 260 521 l 347 521 l 347 434 l 260 434 l 174 434 l 87 434 l 87 347 l 87 260 l 87 174 l 87 87 l 87 0 l 0 0 z "},"G":{"ha":521,"x_min":0,"x_max":434,"o":"m 347 694 l 347 781 l 434 781 l 434 694 l 347 694 m 174 87 l 260 87 l 260 0 l 174 0 l 87 0 l 87 87 l 174 87 m 260 87 l 260 174 l 347 174 l 347 87 l 260 87 m 87 87 l 0 87 l 0 174 l 0 260 l 0 347 l 0 434 l 0 521 l 0 608 l 0 694 l 0 781 l 87 781 l 87 694 l 87 608 l 87 521 l 87 434 l 87 347 l 87 260 l 87 174 l 87 87 m 347 174 l 347 260 l 347 347 l 347 434 l 260 434 l 260 521 l 347 521 l 434 521 l 434 434 l 434 347 l 434 260 l 434 174 l 347 174 m 347 781 l 260 781 l 174 781 l 87 781 l 87 868 l 174 868 l 260 868 l 347 868 l 347 781 z "},"H":{"ha":521,"x_min":0,"x_max":434,"o":"m 347 0 l 347 87 l 347 174 l 347 260 l 347 347 l 260 347 l 174 347 l 87 347 l 87 260 l 87 174 l 87 87 l 87 0 l 0 0 l 0 87 l 0 174 l 0 260 l 0 347 l 0 434 l 0 521 l 0 608 l 0 694 l 0 781 l 0 868 l 87 868 l 87 781 l 87 694 l 87 608 l 87 521 l 87 434 l 174 434 l 260 434 l 347 434 l 347 521 l 347 608 l 347 694 l 347 781 l 347 868 l 434 868 l 434 781 l 434 694 l 434 608 l 434 521 l 434 434 l 434 347 l 434 260 l 434 174 l 434 87 l 434 0 l 347 0 z "},"I":{"ha":521,"x_min":0,"x_max":434,"o":"m 347 87 l 434 87 l 434 0 l 347 0 l 260 0 l 174 0 l 87 0 l 0 0 l 0 87 l 87 87 l 174 87 l 174 174 l 174 260 l 174 347 l 174 434 l 174 521 l 174 608 l 174 694 l 174 781 l 87 781 l 0 781 l 0 868 l 87 868 l 174 868 l 260 868 l 347 868 l 434 868 l 434 781 l 347 781 l 260 781 l 260 694 l 260 608 l 260 521 l 260 434 l 260 347 l 260 260 l 260 174 l 260 87 l 347 87 z "},"J":{"ha":521,"x_min":0,"x_max":434,"o":"m 174 87 l 260 87 l 260 0 l 174 0 l 87 0 l 87 87 l 174 87 m 260 87 l 260 174 l 347 174 l 347 87 l 260 87 m 87 87 l 0 87 l 0 174 l 0 260 l 87 260 l 87 174 l 87 87 m 347 174 l 347 260 l 347 347 l 347 434 l 347 521 l 347 608 l 347 694 l 347 781 l 260 781 l 260 868 l 347 868 l 434 868 l 434 781 l 434 694 l 434 608 l 434 521 l 434 434 l 434 347 l 434 260 l 434 174 l 347 174 z "},"K":{"ha":521,"x_min":0,"x_max":434,"o":"m 347 0 l 347 87 l 347 174 l 347 260 l 434 260 l 434 174 l 434 87 l 434 0 l 347 0 m 0 0 l 0 87 l 0 174 l 0 260 l 0 347 l 0 434 l 0 521 l 0 608 l 0 694 l 0 781 l 0 868 l 87 868 l 87 781 l 87 694 l 87 608 l 87 521 l 174 521 l 174 434 l 260 434 l 260 347 l 347 347 l 347 260 l 260 260 l 260 347 l 174 347 l 174 434 l 87 434 l 87 347 l 87 260 l 87 174 l 87 87 l 87 0 l 0 0 m 174 521 l 174 608 l 260 608 l 260 521 l 174 521 m 260 608 l 260 694 l 347 694 l 347 608 l 260 608 m 347 694 l 347 781 l 347 868 l 434 868 l 434 781 l 434 694 l 347 694 z "},"L":{"ha":521,"x_min":0,"x_max":434,"o":"m 347 0 l 260 0 l 174 0 l 87 0 l 0 0 l 0 87 l 0 174 l 0 260 l 0 347 l 0 434 l 0 521 l 0 608 l 0 694 l 0 781 l 0 868 l 87 868 l 87 781 l 87 694 l 87 608 l 87 521 l 87 434 l 87 347 l 87 260 l 87 174 l 87 87 l 174 87 l 260 87 l 347 87 l 347 174 l 434 174 l 434 87 l 434 0 l 347 0 z "},"M":{"ha":694,"x_min":0,"x_max":608,"o":"m 521 0 l 521 87 l 521 174 l 521 260 l 521 347 l 521 434 l 521 521 l 521 608 l 521 694 l 434 694 l 434 608 l 347 608 l 347 521 l 347 434 l 347 347 l 260 347 l 260 434 l 260 521 l 260 608 l 347 608 l 347 694 l 434 694 l 434 781 l 521 781 l 521 868 l 608 868 l 608 781 l 608 694 l 608 608 l 608 521 l 608 434 l 608 347 l 608 260 l 608 174 l 608 87 l 608 0 l 521 0 m 0 0 l 0 87 l 0 174 l 0 260 l 0 347 l 0 434 l 0 521 l 0 608 l 0 694 l 0 781 l 0 868 l 87 868 l 87 781 l 174 781 l 174 694 l 260 694 l 260 608 l 174 608 l 174 694 l 87 694 l 87 608 l 87 521 l 87 434 l 87 347 l 87 260 l 87 174 l 87 87 l 87 0 l 0 0 z "},"N":{"ha":608,"x_min":0,"x_max":521,"o":"m 434 0 l 434 87 l 434 174 l 434 260 l 434 347 l 347 347 l 347 434 l 434 434 l 434 521 l 434 608 l 434 694 l 434 781 l 434 868 l 521 868 l 521 781 l 521 694 l 521 608 l 521 521 l 521 434 l 521 347 l 521 260 l 521 174 l 521 87 l 521 0 l 434 0 m 0 0 l 0 87 l 0 174 l 0 260 l 0 347 l 0 434 l 0 521 l 0 608 l 0 694 l 0 781 l 0 868 l 87 868 l 87 781 l 174 781 l 174 694 l 260 694 l 260 608 l 347 608 l 347 521 l 347 434 l 260 434 l 260 521 l 260 608 l 174 608 l 174 694 l 87 694 l 87 608 l 87 521 l 87 434 l 87 347 l 87 260 l 87 174 l 87 87 l 87 0 l 0 0 z "},"O":{"ha":521,"x_min":0,"x_max":434,"o":"m 260 87 l 347 87 l 347 0 l 260 0 l 174 0 l 87 0 l 87 87 l 174 87 l 260 87 m 347 87 l 347 174 l 347 260 l 347 347 l 347 434 l 347 521 l 347 608 l 347 694 l 347 781 l 434 781 l 434 694 l 434 608 l 434 521 l 434 434 l 434 347 l 434 260 l 434 174 l 434 87 l 347 87 m 87 87 l 0 87 l 0 174 l 0 260 l 0 347 l 0 434 l 0 521 l 0 608 l 0 694 l 0 781 l 87 781 l 87 694 l 87 608 l 87 521 l 87 434 l 87 347 l 87 260 l 87 174 l 87 87 m 347 781 l 260 781 l 174 781 l 87 781 l 87 868 l 174 868 l 260 868 l 347 868 l 347 781 z "},"P":{"ha":521,"x_min":0,"x_max":434,"o":"m 0 0 l 0 87 l 0 174 l 0 260 l 0 347 l 0 434 l 0 521 l 0 608 l 0 694 l 0 781 l 0 868 l 87 868 l 174 868 l 260 868 l 347 868 l 347 781 l 434 781 l 434 694 l 434 608 l 434 521 l 347 521 l 347 608 l 347 694 l 347 781 l 260 781 l 174 781 l 87 781 l 87 694 l 87 608 l 87 521 l 174 521 l 260 521 l 347 521 l 347 434 l 260 434 l 174 434 l 87 434 l 87 347 l 87 260 l 87 174 l 87 87 l 87 0 l 0 0 z "},"Q":{"ha":521,"x_min":0,"x_max":434,"o":"m 260 -87 l 260 0 l 174 0 l 87 0 l 87 87 l 174 87 l 174 174 l 260 174 l 260 87 l 347 87 l 347 0 l 347 -87 l 260 -87 m 347 87 l 347 174 l 347 260 l 347 347 l 347 434 l 347 521 l 347 608 l 347 694 l 347 781 l 434 781 l 434 694 l 434 608 l 434 521 l 434 434 l 434 347 l 434 260 l 434 174 l 434 87 l 347 87 m 87 87 l 0 87 l 0 174 l 0 260 l 0 347 l 0 434 l 0 521 l 0 608 l 0 694 l 0 781 l 87 781 l 87 694 l 87 608 l 87 521 l 87 434 l 87 347 l 87 260 l 87 174 l 87 87 m 347 781 l 260 781 l 174 781 l 87 781 l 87 868 l 174 868 l 260 868 l 347 868 l 347 781 z "},"R":{"ha":521,"x_min":0,"x_max":434,"o":"m 347 0 l 347 87 l 434 87 l 434 0 l 347 0 m 0 0 l 0 87 l 0 174 l 0 260 l 0 347 l 0 434 l 0 521 l 0 608 l 0 694 l 0 781 l 0 868 l 87 868 l 174 868 l 260 868 l 347 868 l 347 781 l 434 781 l 434 694 l 434 608 l 434 521 l 347 521 l 347 608 l 347 694 l 347 781 l 260 781 l 174 781 l 87 781 l 87 694 l 87 608 l 87 521 l 174 521 l 260 521 l 347 521 l 347 434 l 260 434 l 174 434 l 174 347 l 260 347 l 260 260 l 347 260 l 347 174 l 347 87 l 260 87 l 260 174 l 260 260 l 174 260 l 174 347 l 87 347 l 87 260 l 87 174 l 87 87 l 87 0 l 0 0 z "},"S":{"ha":521,"x_min":0,"x_max":434,"o":"m 347 694 l 347 781 l 434 781 l 434 694 l 347 694 m 260 87 l 347 87 l 347 0 l 260 0 l 174 0 l 174 87 l 260 87 m 347 87 l 347 174 l 347 260 l 347 347 l 347 434 l 434 434 l 434 347 l 434 260 l 434 174 l 434 87 l 347 87 m 174 87 l 87 87 l 87 174 l 174 174 l 174 87 m 87 174 l 0 174 l 0 260 l 87 260 l 87 174 m 347 434 l 260 434 l 174 434 l 87 434 l 87 521 l 174 521 l 260 521 l 347 521 l 347 434 m 87 521 l 0 521 l 0 608 l 0 694 l 0 781 l 87 781 l 87 694 l 87 608 l 87 521 m 347 781 l 260 781 l 174 781 l 87 781 l 87 868 l 174 868 l 260 868 l 347 868 l 347 781 z "},"T":{"ha":521,"x_min":0,"x_max":434,"o":"m 174 0 l 174 87 l 174 174 l 174 260 l 174 347 l 174 434 l 174 521 l 174 608 l 174 694 l 174 781 l 87 781 l 0 781 l 0 868 l 87 868 l 174 868 l 260 868 l 347 868 l 434 868 l 434 781 l 347 781 l 260 781 l 260 694 l 260 608 l 260 521 l 260 434 l 260 347 l 260 260 l 260 174 l 260 87 l 260 0 l 174 0 z "},"U":{"ha":521,"x_min":0,"x_max":434,"o":"m 260 87 l 347 87 l 347 0 l 260 0 l 174 0 l 174 87 l 260 87 m 347 87 l 347 174 l 347 260 l 347 347 l 347 434 l 347 521 l 347 608 l 347 694 l 347 781 l 347 868 l 434 868 l 434 781 l 434 694 l 434 608 l 434 521 l 434 434 l 434 347 l 434 260 l 434 174 l 434 87 l 347 87 m 174 87 l 87 87 l 87 174 l 174 174 l 174 87 m 87 174 l 0 174 l 0 260 l 0 347 l 0 434 l 0 521 l 0 608 l 0 694 l 0 781 l 0 868 l 87 868 l 87 781 l 87 694 l 87 608 l 87 521 l 87 434 l 87 347 l 87 260 l 87 174 z "},"V":{"ha":694,"x_min":0,"x_max":608,"o":"m 260 0 l 260 87 l 347 87 l 347 0 l 260 0 m 347 87 l 347 174 l 347 260 l 347 347 l 434 347 l 434 260 l 434 174 l 434 87 l 347 87 m 260 87 l 174 87 l 174 174 l 174 260 l 174 347 l 260 347 l 260 260 l 260 174 l 260 87 m 434 347 l 434 434 l 434 521 l 434 608 l 521 608 l 521 521 l 521 434 l 521 347 l 434 347 m 174 347 l 87 347 l 87 434 l 87 521 l 87 608 l 174 608 l 174 521 l 174 434 l 174 347 m 521 608 l 521 694 l 521 781 l 521 868 l 608 868 l 608 781 l 608 694 l 608 608 l 521 608 m 87 608 l 0 608 l 0 694 l 0 781 l 0 868 l 87 868 l 87 781 l 87 694 l 87 608 z "},"W":{"ha":1215,"x_min":0,"x_max":1128,"o":"m 781 0 l 781 87 l 868 87 l 868 0 l 781 0 m 260 0 l 260 87 l 347 87 l 347 0 l 260 0 m 868 87 l 868 174 l 868 260 l 868 347 l 955 347 l 955 260 l 955 174 l 955 87 l 868 87 m 781 87 l 694 87 l 694 174 l 694 260 l 694 347 l 781 347 l 781 260 l 781 174 l 781 87 m 347 87 l 347 174 l 347 260 l 347 347 l 434 347 l 434 260 l 434 174 l 434 87 l 347 87 m 260 87 l 174 87 l 174 174 l 174 260 l 174 347 l 260 347 l 260 260 l 260 174 l 260 87 m 955 347 l 955 434 l 955 521 l 955 608 l 1042 608 l 1042 521 l 1042 434 l 1042 347 l 955 347 m 694 347 l 608 347 l 608 434 l 608 521 l 608 608 l 694 608 l 694 521 l 694 434 l 694 347 m 434 347 l 434 434 l 434 521 l 434 608 l 521 608 l 521 521 l 521 434 l 521 347 l 434 347 m 174 347 l 87 347 l 87 434 l 87 521 l 87 608 l 174 608 l 174 521 l 174 434 l 174 347 m 1042 608 l 1042 694 l 1042 781 l 1042 868 l 1128 868 l 1128 781 l 1128 694 l 1128 608 l 1042 608 m 608 608 l 521 608 l 521 694 l 521 781 l 521 868 l 608 868 l 608 781 l 608 694 l 608 608 m 87 608 l 0 608 l 0 694 l 0 781 l 0 868 l 87 868 l 87 781 l 87 694 l 87 608 z "},"X":{"ha":868,"x_min":0,"x_max":781,"o":"m 694 0 l 694 87 l 781 87 l 781 0 l 694 0 m 0 0 l 0 87 l 87 87 l 87 0 l 0 0 m 694 87 l 608 87 l 608 174 l 694 174 l 694 87 m 87 87 l 87 174 l 174 174 l 174 87 l 87 87 m 608 174 l 521 174 l 521 260 l 608 260 l 608 174 m 174 174 l 174 260 l 260 260 l 260 174 l 174 174 m 521 260 l 434 260 l 434 347 l 521 347 l 521 260 m 260 260 l 260 347 l 347 347 l 347 260 l 260 260 m 434 347 l 347 347 l 347 434 l 347 521 l 434 521 l 434 434 l 434 347 m 434 521 l 434 608 l 521 608 l 521 521 l 434 521 m 347 521 l 260 521 l 260 608 l 347 608 l 347 521 m 521 608 l 521 694 l 608 694 l 608 608 l 521 608 m 260 608 l 174 608 l 174 694 l 260 694 l 260 608 m 608 694 l 608 781 l 694 781 l 694 694 l 608 694 m 174 694 l 87 694 l 87 781 l 174 781 l 174 694 m 694 781 l 694 868 l 781 868 l 781 781 l 694 781 m 87 781 l 0 781 l 0 868 l 87 868 l 87 781 z "},"Y":{"ha":521,"x_min":0,"x_max":434,"o":"m 260 87 l 347 87 l 347 0 l 260 0 l 174 0 l 87 0 l 87 87 l 174 87 l 260 87 m 347 87 l 347 174 l 347 260 l 347 347 l 347 434 l 260 434 l 174 434 l 87 434 l 87 521 l 174 521 l 260 521 l 347 521 l 347 608 l 347 694 l 347 781 l 347 868 l 434 868 l 434 781 l 434 694 l 434 608 l 434 521 l 434 434 l 434 347 l 434 260 l 434 174 l 434 87 l 347 87 m 87 87 l 0 87 l 0 174 l 87 174 l 87 87 m 87 521 l 0 521 l 0 608 l 0 694 l 0 781 l 0 868 l 87 868 l 87 781 l 87 694 l 87 608 l 87 521 z "},"Z":{"ha":521,"x_min":0,"x_max":434,"o":"m 347 87 l 434 87 l 434 0 l 347 0 l 260 0 l 174 0 l 87 0 l 0 0 l 0 87 l 0 174 l 87 174 l 87 87 l 174 87 l 260 87 l 347 87 m 87 174 l 87 260 l 87 347 l 174 347 l 174 260 l 174 174 l 87 174 m 174 347 l 174 434 l 174 521 l 260 521 l 260 434 l 260 347 l 174 347 m 260 521 l 260 608 l 260 694 l 347 694 l 347 608 l 347 521 l 260 521 m 347 694 l 347 781 l 260 781 l 174 781 l 87 781 l 0 781 l 0 868 l 87 868 l 174 868 l 260 868 l 347 868 l 434 868 l 434 781 l 434 694 l 347 694 z "},"[":{"ha":347,"x_min":0,"x_max":260,"o":"m 174 0 l 260 0 l 260 -87 l 174 -87 l 87 -87 l 0 -87 l 0 0 l 0 87 l 0 174 l 0 260 l 0 347 l 0 434 l 0 521 l 0 608 l 0 694 l 0 781 l 0 868 l 0 955 l 87 955 l 174 955 l 260 955 l 260 868 l 174 868 l 87 868 l 87 781 l 87 694 l 87 608 l 87 521 l 87 434 l 87 347 l 87 260 l 87 174 l 87 87 l 87 0 l 174 0 z "},"\\":{"ha":608,"x_min":0,"x_max":521,"o":"m 434 0 l 434 87 l 434 174 l 521 174 l 521 87 l 521 0 l 434 0 m 434 174 l 347 174 l 347 260 l 347 347 l 434 347 l 434 260 l 434 174 m 347 347 l 260 347 l 260 434 l 347 434 l 347 347 m 260 434 l 174 434 l 174 521 l 260 521 l 260 434 m 174 521 l 87 521 l 87 608 l 87 694 l 174 694 l 174 608 l 174 521 m 87 694 l 0 694 l 0 781 l 0 868 l 87 868 l 87 781 l 87 694 z "},"]":{"ha":347,"x_min":0,"x_max":260,"o":"m 174 -87 l 87 -87 l 0 -87 l 0 0 l 87 0 l 174 0 l 174 87 l 174 174 l 174 260 l 174 347 l 174 434 l 174 521 l 174 608 l 174 694 l 174 781 l 174 868 l 87 868 l 0 868 l 0 955 l 87 955 l 174 955 l 260 955 l 260 868 l 260 781 l 260 694 l 260 608 l 260 521 l 260 434 l 260 347 l 260 260 l 260 174 l 260 87 l 260 0 l 260 -87 l 174 -87 z "},"^":{"ha":521,"x_min":0,"x_max":434,"o":"m 347 434 l 347 521 l 347 608 l 434 608 l 434 521 l 434 434 l 347 434 m 0 434 l 0 521 l 0 608 l 87 608 l 87 521 l 87 434 l 0 434 m 347 608 l 260 608 l 260 694 l 260 781 l 347 781 l 347 694 l 347 608 m 87 608 l 87 694 l 87 781 l 174 781 l 174 694 l 174 608 l 87 608 m 260 781 l 174 781 l 174 868 l 260 868 l 260 781 z "},"_":{"ha":694,"x_min":0,"x_max":608,"o":"m 521 -87 l 608 -87 l 608 -174 l 521 -174 l 434 -174 l 347 -174 l 260 -174 l 174 -174 l 87 -174 l 0 -174 l 0 -87 l 87 -87 l 174 -87 l 260 -87 l 347 -87 l 434 -87 l 521 -87 z "},"`":{"ha":347,"x_min":87,"x_max":260,"o":"m 174 608 l 174 694 l 174 781 l 260 781 l 260 694 l 260 608 l 174 608 m 174 781 l 87 781 l 87 868 l 174 868 l 174 781 z "},"a":{"ha":608,"x_min":0,"x_max":521,"o":"m 434 0 l 434 87 l 521 87 l 521 0 l 434 0 m 260 87 l 347 87 l 347 0 l 260 0 l 174 0 l 87 0 l 87 87 l 174 87 l 260 87 m 434 87 l 347 87 l 347 174 l 347 260 l 347 347 l 347 434 l 347 521 l 260 521 l 174 521 l 87 521 l 87 434 l 87 347 l 87 260 l 87 174 l 87 87 l 0 87 l 0 174 l 0 260 l 0 347 l 0 434 l 0 521 l 87 521 l 87 608 l 174 608 l 260 608 l 347 608 l 434 608 l 434 521 l 434 434 l 434 347 l 434 260 l 434 174 l 434 87 z "},"b":{"ha":521,"x_min":0,"x_max":434,"o":"m 260 87 l 347 87 l 347 0 l 260 0 l 174 0 l 87 0 l 0 0 l 0 87 l 0 174 l 0 260 l 0 347 l 0 434 l 0 521 l 0 608 l 0 694 l 0 781 l 0 868 l 0 955 l 87 955 l 87 868 l 87 781 l 87 694 l 87 608 l 87 521 l 174 521 l 174 434 l 87 434 l 87 347 l 87 260 l 87 174 l 87 87 l 174 87 l 260 87 m 347 87 l 347 174 l 347 260 l 347 347 l 347 434 l 347 521 l 434 521 l 434 434 l 434 347 l 434 260 l 434 174 l 434 87 l 347 87 m 347 521 l 260 521 l 174 521 l 174 608 l 260 608 l 347 608 l 347 521 z "},"c":{"ha":521,"x_min":0,"x_max":434,"o":"m 347 434 l 347 521 l 434 521 l 434 434 l 347 434 m 260 87 l 347 87 l 347 0 l 260 0 l 174 0 l 87 0 l 87 87 l 174 87 l 260 87 m 347 87 l 347 174 l 434 174 l 434 87 l 347 87 m 87 87 l 0 87 l 0 174 l 0 260 l 0 347 l 0 434 l 0 521 l 87 521 l 87 434 l 87 347 l 87 260 l 87 174 l 87 87 m 347 521 l 260 521 l 174 521 l 87 521 l 87 608 l 174 608 l 260 608 l 347 608 l 347 521 z "},"d":{"ha":521,"x_min":0,"x_max":434,"o":"m 347 0 l 347 87 l 260 87 l 260 174 l 347 174 l 347 260 l 347 347 l 347 434 l 347 521 l 260 521 l 174 521 l 87 521 l 87 434 l 87 347 l 87 260 l 87 174 l 87 87 l 174 87 l 260 87 l 260 0 l 174 0 l 87 0 l 87 87 l 0 87 l 0 174 l 0 260 l 0 347 l 0 434 l 0 521 l 87 521 l 87 608 l 174 608 l 260 608 l 347 608 l 347 694 l 347 781 l 347 868 l 347 955 l 434 955 l 434 868 l 434 781 l 434 694 l 434 608 l 434 521 l 434 434 l 434 347 l 434 260 l 434 174 l 434 87 l 434 0 l 347 0 z "},"e":{"ha":521,"x_min":0,"x_max":434,"o":"m 260 87 l 347 87 l 347 0 l 260 0 l 174 0 l 87 0 l 87 87 l 174 87 l 260 87 m 347 87 l 347 174 l 434 174 l 434 87 l 347 87 m 87 87 l 0 87 l 0 174 l 0 260 l 0 347 l 0 434 l 0 521 l 87 521 l 87 434 l 87 347 l 174 347 l 260 347 l 347 347 l 347 434 l 347 521 l 434 521 l 434 434 l 434 347 l 434 260 l 347 260 l 260 260 l 174 260 l 87 260 l 87 174 l 87 87 m 347 521 l 260 521 l 174 521 l 87 521 l 87 608 l 174 608 l 260 608 l 347 608 l 347 521 z "},"f":{"ha":608,"x_min":0,"x_max":521,"o":"m 87 0 l 87 87 l 87 174 l 87 260 l 87 347 l 87 434 l 0 434 l 0 521 l 87 521 l 87 608 l 87 694 l 87 781 l 174 781 l 174 694 l 174 608 l 174 521 l 260 521 l 347 521 l 347 434 l 260 434 l 174 434 l 174 347 l 174 260 l 174 174 l 174 87 l 174 0 l 87 0 m 434 694 l 434 781 l 521 781 l 521 694 l 434 694 m 434 781 l 347 781 l 260 781 l 174 781 l 174 868 l 260 868 l 347 868 l 434 868 l 434 781 z "},"g":{"ha":521,"x_min":0,"x_max":434,"o":"m 260 -174 l 347 -174 l 347 -260 l 260 -260 l 174 -260 l 87 -260 l 87 -174 l 174 -174 l 260 -174 m 347 -174 l 347 -87 l 347 0 l 347 87 l 260 87 l 260 174 l 347 174 l 347 260 l 347 347 l 347 434 l 347 521 l 260 521 l 174 521 l 87 521 l 87 434 l 87 347 l 87 260 l 87 174 l 87 87 l 174 87 l 260 87 l 260 0 l 174 0 l 87 0 l 87 87 l 0 87 l 0 174 l 0 260 l 0 347 l 0 434 l 0 521 l 87 521 l 87 608 l 174 608 l 260 608 l 347 608 l 434 608 l 434 521 l 434 434 l 434 347 l 434 260 l 434 174 l 434 87 l 434 0 l 434 -87 l 434 -174 l 347 -174 m 87 -174 l 0 -174 l 0 -87 l 87 -87 l 87 -174 z "},"h":{"ha":521,"x_min":0,"x_max":434,"o":"m 347 0 l 347 87 l 347 174 l 347 260 l 347 347 l 347 434 l 347 521 l 434 521 l 434 434 l 434 347 l 434 260 l 434 174 l 434 87 l 434 0 l 347 0 m 0 0 l 0 87 l 0 174 l 0 260 l 0 347 l 0 434 l 0 521 l 0 608 l 0 694 l 0 781 l 0 868 l 0 955 l 87 955 l 87 868 l 87 781 l 87 694 l 87 608 l 87 521 l 174 521 l 174 434 l 87 434 l 87 347 l 87 260 l 87 174 l 87 87 l 87 0 l 0 0 m 347 521 l 260 521 l 174 521 l 174 608 l 260 608 l 347 608 l 347 521 z "},"i":{"ha":174,"x_min":0,"x_max":87,"o":"m 0 0 l 0 87 l 0 174 l 0 260 l 0 347 l 0 434 l 0 521 l 0 608 l 87 608 l 87 521 l 87 434 l 87 347 l 87 260 l 87 174 l 87 87 l 87 0 l 0 0 m 0 781 l 0 868 l 87 868 l 87 781 l 0 781 z "},"j":{"ha":434,"x_min":0,"x_max":347,"o":"m 260 781 l 260 868 l 347 868 l 347 781 l 260 781 m 174 -87 l 260 -87 l 260 -174 l 174 -174 l 87 -174 l 87 -87 l 174 -87 m 260 -87 l 260 0 l 260 87 l 260 174 l 260 260 l 260 347 l 260 434 l 260 521 l 260 608 l 347 608 l 347 521 l 347 434 l 347 347 l 347 260 l 347 174 l 347 87 l 347 0 l 347 -87 l 260 -87 m 87 -87 l 0 -87 l 0 0 l 87 0 l 87 -87 z "},"k":{"ha":521,"x_min":0,"x_max":434,"o":"m 347 0 l 347 87 l 434 87 l 434 0 l 347 0 m 0 0 l 0 87 l 0 174 l 0 260 l 0 347 l 0 434 l 0 521 l 0 608 l 0 694 l 0 781 l 0 868 l 0 955 l 87 955 l 87 868 l 87 781 l 87 694 l 87 608 l 87 521 l 87 434 l 87 347 l 174 347 l 174 260 l 260 260 l 260 174 l 347 174 l 347 87 l 260 87 l 260 174 l 174 174 l 174 260 l 87 260 l 87 174 l 87 87 l 87 0 l 0 0 m 174 347 l 174 434 l 260 434 l 260 347 l 174 347 m 260 434 l 260 521 l 347 521 l 347 434 l 260 434 m 347 521 l 347 608 l 434 608 l 434 521 l 347 521 z "},"l":{"ha":174,"x_min":0,"x_max":87,"o":"m 0 0 l 0 87 l 0 174 l 0 260 l 0 347 l 0 434 l 0 521 l 0 608 l 0 694 l 0 781 l 0 868 l 0 955 l 87 955 l 87 868 l 87 781 l 87 694 l 87 608 l 87 521 l 87 434 l 87 347 l 87 260 l 87 174 l 87 87 l 87 0 l 0 0 z "},"m":{"ha":868,"x_min":0,"x_max":781,"o":"m 694 0 l 694 87 l 694 174 l 694 260 l 694 347 l 694 434 l 694 521 l 781 521 l 781 434 l 781 347 l 781 260 l 781 174 l 781 87 l 781 0 l 694 0 m 347 0 l 347 87 l 347 174 l 347 260 l 347 347 l 347 434 l 347 521 l 434 521 l 521 521 l 521 434 l 434 434 l 434 347 l 434 260 l 434 174 l 434 87 l 434 0 l 347 0 m 0 0 l 0 87 l 0 174 l 0 260 l 0 347 l 0 434 l 0 521 l 0 608 l 87 608 l 87 521 l 174 521 l 174 434 l 87 434 l 87 347 l 87 260 l 87 174 l 87 87 l 87 0 l 0 0 m 694 521 l 608 521 l 521 521 l 521 608 l 608 608 l 694 608 l 694 521 m 347 521 l 260 521 l 174 521 l 174 608 l 260 608 l 347 608 l 347 521 z "},"n":{"ha":521,"x_min":0,"x_max":434,"o":"m 347 0 l 347 87 l 347 174 l 347 260 l 347 347 l 347 434 l 347 521 l 434 521 l 434 434 l 434 347 l 434 260 l 434 174 l 434 87 l 434 0 l 347 0 m 0 0 l 0 87 l 0 174 l 0 260 l 0 347 l 0 434 l 0 521 l 0 608 l 87 608 l 87 521 l 174 521 l 174 434 l 87 434 l 87 347 l 87 260 l 87 174 l 87 87 l 87 0 l 0 0 m 347 521 l 260 521 l 174 521 l 174 608 l 260 608 l 347 608 l 347 521 z "},"o":{"ha":521,"x_min":0,"x_max":434,"o":"m 260 87 l 347 87 l 347 0 l 260 0 l 174 0 l 87 0 l 87 87 l 174 87 l 260 87 m 347 87 l 347 174 l 347 260 l 347 347 l 347 434 l 347 521 l 434 521 l 434 434 l 434 347 l 434 260 l 434 174 l 434 87 l 347 87 m 87 87 l 0 87 l 0 174 l 0 260 l 0 347 l 0 434 l 0 521 l 87 521 l 87 434 l 87 347 l 87 260 l 87 174 l 87 87 m 347 521 l 260 521 l 174 521 l 87 521 l 87 608 l 174 608 l 260 608 l 347 608 l 347 521 z "},"p":{"ha":521,"x_min":0,"x_max":434,"o":"m 0 -260 l 0 -174 l 0 -87 l 0 0 l 0 87 l 0 174 l 0 260 l 0 347 l 0 434 l 0 521 l 0 608 l 87 608 l 87 521 l 174 521 l 174 434 l 87 434 l 87 347 l 87 260 l 87 174 l 174 174 l 174 87 l 260 87 l 347 87 l 347 0 l 260 0 l 174 0 l 174 87 l 87 87 l 87 0 l 87 -87 l 87 -174 l 87 -260 l 0 -260 m 347 87 l 347 174 l 347 260 l 347 347 l 347 434 l 347 521 l 434 521 l 434 434 l 434 347 l 434 260 l 434 174 l 434 87 l 347 87 m 347 521 l 260 521 l 174 521 l 174 608 l 260 608 l 347 608 l 347 521 z "},"q":{"ha":521,"x_min":0,"x_max":434,"o":"m 347 -260 l 347 -174 l 347 -87 l 347 0 l 347 87 l 260 87 l 260 0 l 174 0 l 87 0 l 87 87 l 174 87 l 260 87 l 260 174 l 347 174 l 347 260 l 347 347 l 347 434 l 260 434 l 260 521 l 347 521 l 347 608 l 434 608 l 434 521 l 434 434 l 434 347 l 434 260 l 434 174 l 434 87 l 434 0 l 434 -87 l 434 -174 l 434 -260 l 347 -260 m 87 87 l 0 87 l 0 174 l 0 260 l 0 347 l 0 434 l 0 521 l 87 521 l 87 434 l 87 347 l 87 260 l 87 174 l 87 87 m 260 521 l 174 521 l 87 521 l 87 608 l 174 608 l 260 608 l 260 521 z "},"r":{"ha":521,"x_min":0,"x_max":434,"o":"m 0 0 l 0 87 l 0 174 l 0 260 l 0 347 l 0 434 l 0 521 l 0 608 l 87 608 l 87 521 l 174 521 l 174 434 l 87 434 l 87 347 l 87 260 l 87 174 l 87 87 l 87 0 l 0 0 m 347 434 l 347 521 l 434 521 l 434 434 l 347 434 m 347 521 l 260 521 l 174 521 l 174 608 l 260 608 l 347 608 l 347 521 z "},"s":{"ha":521,"x_min":0,"x_max":434,"o":"m 347 434 l 347 521 l 434 521 l 434 434 l 347 434 m 260 87 l 347 87 l 347 0 l 260 0 l 174 0 l 87 0 l 87 87 l 174 87 l 260 87 m 347 87 l 347 174 l 347 260 l 434 260 l 434 174 l 434 87 l 347 87 m 87 87 l 0 87 l 0 174 l 87 174 l 87 87 m 347 260 l 260 260 l 174 260 l 87 260 l 87 347 l 174 347 l 260 347 l 347 347 l 347 260 m 87 347 l 0 347 l 0 434 l 0 521 l 87 521 l 87 434 l 87 347 m 347 521 l 260 521 l 174 521 l 87 521 l 87 608 l 174 608 l 260 608 l 347 608 l 347 521 z "},"t":{"ha":521,"x_min":0,"x_max":434,"o":"m 260 87 l 347 87 l 347 0 l 260 0 l 174 0 l 174 87 l 260 87 m 347 87 l 347 174 l 434 174 l 434 87 l 347 87 m 174 87 l 87 87 l 87 174 l 87 260 l 87 347 l 87 434 l 0 434 l 0 521 l 87 521 l 87 608 l 87 694 l 87 781 l 174 781 l 174 694 l 174 608 l 260 608 l 347 608 l 434 608 l 434 521 l 347 521 l 260 521 l 174 521 l 174 434 l 174 347 l 174 260 l 174 174 l 174 87 z "},"u":{"ha":521,"x_min":0,"x_max":434,"o":"m 347 0 l 347 87 l 260 87 l 260 0 l 174 0 l 87 0 l 87 87 l 174 87 l 260 87 l 260 174 l 347 174 l 347 260 l 347 347 l 347 434 l 347 521 l 347 608 l 434 608 l 434 521 l 434 434 l 434 347 l 434 260 l 434 174 l 434 87 l 434 0 l 347 0 m 87 87 l 0 87 l 0 174 l 0 260 l 0 347 l 0 434 l 0 521 l 0 608 l 87 608 l 87 521 l 87 434 l 87 347 l 87 260 l 87 174 l 87 87 z "},"v":{"ha":694,"x_min":0,"x_max":608,"o":"m 260 0 l 260 87 l 347 87 l 347 0 l 260 0 m 347 87 l 347 174 l 347 260 l 434 260 l 434 174 l 434 87 l 347 87 m 260 87 l 174 87 l 174 174 l 174 260 l 260 260 l 260 174 l 260 87 m 434 260 l 434 347 l 434 434 l 521 434 l 521 347 l 521 260 l 434 260 m 174 260 l 87 260 l 87 347 l 87 434 l 174 434 l 174 347 l 174 260 m 521 434 l 521 521 l 521 608 l 608 608 l 608 521 l 608 434 l 521 434 m 87 434 l 0 434 l 0 521 l 0 608 l 87 608 l 87 521 l 87 434 z "},"w":{"ha":1215,"x_min":0,"x_max":1128,"o":"m 781 0 l 781 87 l 868 87 l 868 0 l 781 0 m 260 0 l 260 87 l 347 87 l 347 0 l 260 0 m 868 87 l 868 174 l 868 260 l 955 260 l 955 174 l 955 87 l 868 87 m 781 87 l 694 87 l 694 174 l 694 260 l 781 260 l 781 174 l 781 87 m 347 87 l 347 174 l 347 260 l 434 260 l 434 174 l 434 87 l 347 87 m 260 87 l 174 87 l 174 174 l 174 260 l 260 260 l 260 174 l 260 87 m 955 260 l 955 347 l 955 434 l 1042 434 l 1042 347 l 1042 260 l 955 260 m 694 260 l 608 260 l 608 347 l 608 434 l 694 434 l 694 347 l 694 260 m 434 260 l 434 347 l 434 434 l 521 434 l 521 347 l 521 260 l 434 260 m 174 260 l 87 260 l 87 347 l 87 434 l 174 434 l 174 347 l 174 260 m 1042 434 l 1042 521 l 1042 608 l 1128 608 l 1128 521 l 1128 434 l 1042 434 m 608 434 l 521 434 l 521 521 l 521 608 l 608 608 l 608 521 l 608 434 m 87 434 l 0 434 l 0 521 l 0 608 l 87 608 l 87 521 l 87 434 z "},"x":{"ha":694,"x_min":0,"x_max":608,"o":"m 521 0 l 521 87 l 608 87 l 608 0 l 521 0 m 0 0 l 0 87 l 87 87 l 87 0 l 0 0 m 521 87 l 434 87 l 434 174 l 521 174 l 521 87 m 87 87 l 87 174 l 174 174 l 174 87 l 87 87 m 434 174 l 347 174 l 347 260 l 434 260 l 434 174 m 174 174 l 174 260 l 260 260 l 260 174 l 174 174 m 347 260 l 260 260 l 260 347 l 347 347 l 347 260 m 347 347 l 347 434 l 434 434 l 434 347 l 347 347 m 260 347 l 174 347 l 174 434 l 260 434 l 260 347 m 434 434 l 434 521 l 521 521 l 521 434 l 434 434 m 174 434 l 87 434 l 87 521 l 174 521 l 174 434 m 521 521 l 521 608 l 608 608 l 608 521 l 521 521 m 87 521 l 0 521 l 0 608 l 87 608 l 87 521 z "},"y":{"ha":521,"x_min":0,"x_max":434,"o":"m 87 -174 l 174 -174 l 174 -260 l 87 -260 l 0 -260 l 0 -174 l 87 -174 m 174 -174 l 174 -87 l 260 -87 l 260 -174 l 174 -174 m 260 -87 l 260 0 l 347 0 l 347 -87 l 260 -87 m 347 0 l 347 87 l 347 174 l 347 260 l 347 347 l 347 434 l 347 521 l 347 608 l 434 608 l 434 521 l 434 434 l 434 347 l 434 260 l 434 174 l 434 87 l 434 0 l 347 0 m 260 0 l 174 0 l 174 87 l 260 87 l 260 0 m 174 87 l 87 87 l 87 174 l 174 174 l 174 87 m 87 174 l 0 174 l 0 260 l 0 347 l 0 434 l 0 521 l 0 608 l 87 608 l 87 521 l 87 434 l 87 347 l 87 260 l 87 174 z "},"z":{"ha":521,"x_min":0,"x_max":434,"o":"m 347 87 l 434 87 l 434 0 l 347 0 l 260 0 l 174 0 l 87 0 l 0 0 l 0 87 l 0 174 l 87 174 l 87 87 l 174 87 l 260 87 l 347 87 m 87 174 l 87 260 l 174 260 l 174 174 l 87 174 m 174 260 l 174 347 l 260 347 l 260 260 l 174 260 m 260 347 l 260 434 l 347 434 l 347 347 l 260 347 m 347 434 l 347 521 l 260 521 l 174 521 l 87 521 l 0 521 l 0 608 l 87 608 l 174 608 l 260 608 l 347 608 l 434 608 l 434 521 l 434 434 l 347 434 z "},"{":{"ha":434,"x_min":0,"x_max":347,"o":"m 260 -87 l 260 0 l 347 0 l 347 -87 l 260 -87 m 260 0 l 174 0 l 174 87 l 260 87 l 260 0 m 174 87 l 87 87 l 87 174 l 87 260 l 87 347 l 174 347 l 174 260 l 174 174 l 174 87 m 87 347 l 0 347 l 0 434 l 0 521 l 87 521 l 87 434 l 87 347 m 87 521 l 87 608 l 87 694 l 87 781 l 174 781 l 174 694 l 174 608 l 174 521 l 87 521 m 174 781 l 174 868 l 260 868 l 260 781 l 174 781 m 260 868 l 260 955 l 347 955 l 347 868 l 260 868 z "},"|":{"ha":174,"x_min":0,"x_max":87,"o":"m 0 0 l 0 87 l 0 174 l 0 260 l 0 347 l 0 434 l 0 521 l 0 608 l 0 694 l 0 781 l 0 868 l 87 868 l 87 781 l 87 694 l 87 608 l 87 521 l 87 434 l 87 347 l 87 260 l 87 174 l 87 87 l 87 0 l 0 0 z "},"}":{"ha":434,"x_min":0,"x_max":347,"o":"m 0 -87 l 0 0 l 87 0 l 87 -87 l 0 -87 m 87 0 l 87 87 l 174 87 l 174 0 l 87 0 m 174 87 l 174 174 l 174 260 l 174 347 l 260 347 l 260 260 l 260 174 l 260 87 l 174 87 m 260 347 l 260 434 l 260 521 l 347 521 l 347 434 l 347 347 l 260 347 m 260 521 l 174 521 l 174 608 l 174 694 l 174 781 l 260 781 l 260 694 l 260 608 l 260 521 m 174 781 l 87 781 l 87 868 l 174 868 l 174 781 m 87 868 l 0 868 l 0 955 l 87 955 l 87 868 z "},"~":{"ha":694,"x_min":87,"x_max":608,"o":"m 87 347 l 87 434 l 174 434 l 174 347 l 87 347 m 434 434 l 521 434 l 521 347 l 434 347 l 347 347 l 347 434 l 434 434 m 521 434 l 521 521 l 608 521 l 608 434 l 521 434 m 347 434 l 260 434 l 174 434 l 174 521 l 260 521 l 347 521 l 347 434 z "},"€":{"ha":608,"x_min":0,"x_max":521,"o":"m 434 694 l 434 781 l 521 781 l 521 694 l 434 694 m 260 87 l 347 87 l 347 0 l 260 0 l 174 0 l 174 87 l 260 87 m 347 87 l 347 174 l 434 174 l 434 87 l 347 87 m 174 87 l 87 87 l 87 174 l 87 260 l 0 260 l 0 347 l 87 347 l 87 434 l 87 521 l 0 521 l 0 608 l 87 608 l 87 694 l 87 781 l 174 781 l 174 694 l 174 608 l 260 608 l 347 608 l 434 608 l 434 521 l 347 521 l 260 521 l 174 521 l 174 434 l 174 347 l 260 347 l 347 347 l 347 260 l 260 260 l 174 260 l 174 174 l 174 87 m 434 174 l 434 260 l 521 260 l 521 174 l 434 174 m 434 781 l 347 781 l 260 781 l 174 781 l 174 868 l 260 868 l 347 868 l 434 868 l 434 781 z "},"…":{"ha":694,"x_min":0,"x_max":608,"o":"m 521 0 l 521 87 l 608 87 l 608 0 l 521 0 m 260 0 l 260 87 l 347 87 l 347 0 l 260 0 m 0 0 l 0 87 l 87 87 l 87 0 l 0 0 z "},"‰":{"ha":955,"x_min":0,"x_max":868,"o":"m 694 0 l 694 87 l 781 87 l 781 0 l 694 0 m 347 0 l 347 87 l 434 87 l 434 0 l 347 0 m 0 0 l 0 87 l 0 174 l 87 174 l 87 87 l 87 0 l 0 0 m 87 521 l 87 608 l 174 608 l 174 521 l 87 521 m 781 87 l 781 174 l 781 260 l 868 260 l 868 174 l 868 87 l 781 87 m 694 87 l 608 87 l 608 174 l 608 260 l 694 260 l 694 174 l 694 87 m 434 87 l 434 174 l 434 260 l 521 260 l 521 174 l 521 87 l 434 87 m 347 87 l 260 87 l 260 174 l 260 260 l 347 260 l 347 174 l 347 87 m 87 174 l 87 260 l 87 347 l 174 347 l 174 260 l 174 174 l 87 174 m 781 260 l 694 260 l 694 347 l 781 347 l 781 260 m 434 260 l 347 260 l 347 347 l 434 347 l 434 260 m 174 347 l 174 434 l 260 434 l 260 347 l 174 347 m 260 434 l 260 521 l 347 521 l 347 434 l 260 434 m 347 521 l 347 608 l 347 694 l 434 694 l 434 608 l 434 521 l 347 521 m 174 608 l 174 694 l 174 781 l 260 781 l 260 694 l 260 608 l 174 608 m 87 608 l 0 608 l 0 694 l 0 781 l 87 781 l 87 694 l 87 608 m 434 694 l 434 781 l 434 868 l 521 868 l 521 781 l 521 694 l 434 694 m 174 781 l 87 781 l 87 868 l 174 868 l 174 781 z "},"‘":{"ha":260,"x_min":0,"x_max":174,"o":"m 0 608 l 0 694 l 0 781 l 87 781 l 87 694 l 87 608 l 0 608 m 87 781 l 87 868 l 174 868 l 174 781 l 87 781 z "},"’":{"ha":260,"x_min":0,"x_max":174,"o":"m 0 608 l 0 694 l 87 694 l 87 608 l 0 608 m 87 694 l 87 781 l 87 868 l 174 868 l 174 781 l 174 694 l 87 694 z "},"“":{"ha":521,"x_min":0,"x_max":434,"o":"m 260 608 l 260 694 l 260 781 l 347 781 l 347 694 l 347 608 l 260 608 m 0 608 l 0 694 l 0 781 l 87 781 l 87 694 l 87 608 l 0 608 m 347 781 l 347 868 l 434 868 l 434 781 l 347 781 m 87 781 l 87 868 l 174 868 l 174 781 l 87 781 z "},"”":{"ha":521,"x_min":0,"x_max":434,"o":"m 260 608 l 260 694 l 347 694 l 347 608 l 260 608 m 0 608 l 0 694 l 87 694 l 87 608 l 0 608 m 347 694 l 347 781 l 347 868 l 434 868 l 434 781 l 434 694 l 347 694 m 87 694 l 87 781 l 87 868 l 174 868 l 174 781 l 174 694 l 87 694 z "},"•":{"ha":347,"x_min":0,"x_max":260,"o":"m 87 347 l 87 434 l 0 434 l 0 521 l 87 521 l 87 608 l 174 608 l 174 521 l 260 521 l 260 434 l 174 434 l 174 347 l 87 347 z "}," ":{"ha":434,"x_min":0,"x_max":0,"o":""},"¡":{"ha":174,"x_min":0,"x_max":87,"o":"m 0 -260 l 0 -174 l 0 -87 l 0 0 l 0 87 l 0 174 l 0 260 l 0 347 l 87 347 l 87 260 l 87 174 l 87 87 l 87 0 l 87 -87 l 87 -174 l 87 -260 l 0 -260 m 0 521 l 0 608 l 87 608 l 87 521 l 0 521 z "},"¢":{"ha":521,"x_min":0,"x_max":434,"o":"m 174 -174 l 174 -87 l 174 0 l 87 0 l 87 87 l 0 87 l 0 174 l 0 260 l 0 347 l 0 434 l 0 521 l 87 521 l 87 608 l 174 608 l 174 694 l 174 781 l 260 781 l 260 694 l 260 608 l 347 608 l 347 521 l 434 521 l 434 434 l 347 434 l 347 521 l 260 521 l 260 434 l 260 347 l 260 260 l 260 174 l 260 87 l 347 87 l 347 0 l 260 0 l 260 -87 l 260 -174 l 174 -174 m 347 87 l 347 174 l 434 174 l 434 87 l 347 87 m 174 87 l 174 174 l 174 260 l 174 347 l 174 434 l 174 521 l 87 521 l 87 434 l 87 347 l 87 260 l 87 174 l 87 87 l 174 87 z "},"£":{"ha":521,"x_min":0,"x_max":434,"o":"m 347 694 l 347 781 l 434 781 l 434 694 l 347 694 m 260 87 l 347 87 l 347 0 l 260 0 l 174 0 l 87 0 l 0 0 l 0 87 l 87 87 l 87 174 l 87 260 l 87 347 l 87 434 l 0 434 l 0 521 l 87 521 l 87 608 l 87 694 l 87 781 l 174 781 l 174 694 l 174 608 l 174 521 l 260 521 l 347 521 l 347 434 l 260 434 l 174 434 l 174 347 l 174 260 l 174 174 l 174 87 l 260 87 m 347 87 l 347 174 l 347 260 l 434 260 l 434 174 l 434 87 l 347 87 m 347 781 l 260 781 l 174 781 l 174 868 l 260 868 l 347 868 l 347 781 z "},"¥":{"ha":694,"x_min":0,"x_max":608,"o":"m 347 87 l 434 87 l 434 0 l 347 0 l 260 0 l 174 0 l 174 87 l 260 87 l 347 87 m 434 87 l 434 174 l 434 260 l 434 347 l 434 434 l 347 434 l 260 434 l 174 434 l 174 521 l 87 521 l 87 608 l 0 608 l 0 694 l 87 694 l 87 781 l 87 868 l 174 868 l 174 781 l 174 694 l 260 694 l 347 694 l 434 694 l 434 781 l 434 868 l 521 868 l 521 781 l 521 694 l 608 694 l 608 608 l 521 608 l 521 521 l 521 434 l 521 347 l 521 260 l 521 174 l 521 87 l 434 87 m 174 87 l 87 87 l 87 174 l 174 174 l 174 87 m 347 521 l 434 521 l 434 608 l 347 608 l 260 608 l 174 608 l 174 521 l 260 521 l 347 521 z "},"©":{"ha":694,"x_min":0,"x_max":608,"o":"m 434 -87 l 434 0 l 521 0 l 521 -87 l 434 -87 m 174 0 l 174 87 l 174 174 l 174 260 l 87 260 l 87 174 l 87 87 l 87 0 l 0 0 l 0 87 l 0 174 l 0 260 l 0 347 l 0 434 l 87 434 l 87 347 l 174 347 l 174 434 l 260 434 l 260 347 l 260 260 l 260 174 l 260 87 l 260 0 l 174 0 m 521 174 l 521 260 l 608 260 l 608 174 l 521 174 m 521 434 l 521 521 l 521 608 l 434 608 l 434 521 l 434 434 l 347 434 l 347 521 l 347 608 l 347 694 l 347 781 l 347 868 l 434 868 l 434 781 l 434 694 l 521 694 l 521 781 l 521 868 l 608 868 l 608 781 l 608 694 l 608 608 l 608 521 l 608 434 l 521 434 m 87 521 l 87 608 l 174 608 l 174 521 l 87 521 m 174 781 l 174 868 l 260 868 l 260 781 l 174 781 m 521 0 l 521 87 l 608 87 l 608 0 l 521 0 m 434 0 l 347 0 l 347 87 l 347 174 l 347 260 l 434 260 l 434 174 l 434 87 l 434 0 m 521 260 l 434 260 l 434 347 l 521 347 l 521 260 m 174 608 l 174 694 l 260 694 l 260 608 l 174 608 m 87 608 l 0 608 l 0 694 l 0 781 l 0 868 l 87 868 l 87 781 l 87 694 l 87 608 m 174 868 l 87 868 l 87 955 l 174 955 l 174 868 z "},"¬":{"ha":868,"x_min":0,"x_max":781,"o":"m 608 0 l 521 0 l 434 0 l 347 0 l 260 0 l 174 0 l 87 0 l 87 87 l 0 87 l 0 174 l 0 260 l 0 347 l 0 434 l 0 521 l 0 608 l 0 694 l 0 781 l 87 781 l 87 868 l 174 868 l 260 868 l 347 868 l 434 868 l 521 868 l 608 868 l 694 868 l 694 781 l 781 781 l 781 694 l 781 608 l 781 521 l 781 434 l 781 347 l 781 260 l 781 174 l 781 87 l 694 87 l 694 0 l 608 0 m 521 87 l 608 87 l 608 174 l 521 174 l 434 174 l 347 174 l 260 174 l 174 174 l 174 260 l 174 347 l 174 434 l 174 521 l 174 608 l 174 694 l 87 694 l 87 608 l 87 521 l 87 434 l 87 347 l 87 260 l 87 174 l 174 174 l 174 87 l 260 87 l 347 87 l 434 87 l 521 87 m 694 174 l 694 260 l 694 347 l 694 434 l 694 521 l 694 608 l 694 694 l 608 694 l 608 781 l 521 781 l 434 781 l 347 781 l 260 781 l 174 781 l 174 694 l 260 694 l 347 694 l 434 694 l 521 694 l 608 694 l 608 608 l 608 521 l 608 434 l 608 347 l 608 260 l 608 174 l 694 174 m 347 260 l 347 347 l 434 347 l 434 434 l 347 434 l 347 521 l 434 521 l 434 608 l 347 608 l 260 608 l 260 521 l 260 434 l 260 347 l 260 260 l 347 260 m 521 434 l 521 521 l 434 521 l 434 434 l 521 434 z "},"¿":{"ha":521,"x_min":0,"x_max":434,"o":"m 174 521 l 174 608 l 260 608 l 260 521 l 174 521 m 260 -174 l 347 -174 l 347 -260 l 260 -260 l 174 -260 l 87 -260 l 87 -174 l 174 -174 l 260 -174 m 347 -174 l 347 -87 l 434 -87 l 434 -174 l 347 -174 m 87 -174 l 0 -174 l 0 -87 l 0 0 l 87 0 l 87 -87 l 87 -174 m 87 0 l 87 87 l 174 87 l 174 0 l 87 0 m 174 87 l 174 174 l 174 260 l 174 347 l 260 347 l 260 260 l 260 174 l 260 87 l 174 87 z "},"Æ":{"ha":868,"x_min":0,"x_max":781,"o":"m 0 0 l 0 87 l 0 174 l 0 260 l 0 347 l 0 434 l 0 521 l 0 608 l 0 694 l 87 694 l 87 781 l 174 781 l 174 868 l 260 868 l 347 868 l 434 868 l 521 868 l 608 868 l 694 868 l 781 868 l 781 781 l 694 781 l 608 781 l 521 781 l 434 781 l 434 694 l 434 608 l 434 521 l 434 434 l 521 434 l 608 434 l 608 347 l 521 347 l 434 347 l 434 260 l 434 174 l 434 87 l 521 87 l 608 87 l 694 87 l 781 87 l 781 0 l 694 0 l 608 0 l 521 0 l 434 0 l 347 0 l 347 87 l 347 174 l 347 260 l 347 347 l 260 347 l 174 347 l 87 347 l 87 260 l 87 174 l 87 87 l 87 0 l 0 0 m 260 434 l 347 434 l 347 521 l 347 608 l 347 694 l 347 781 l 260 781 l 174 781 l 174 694 l 87 694 l 87 608 l 87 521 l 87 434 l 174 434 l 260 434 z "},"Ö":{"ha":521,"x_min":0,"x_max":434,"o":"m 260 955 l 260 1042 l 347 1042 l 347 955 l 260 955 m 87 955 l 87 1042 l 174 1042 l 174 955 l 87 955 m 260 87 l 347 87 l 347 0 l 260 0 l 174 0 l 87 0 l 87 87 l 174 87 l 260 87 m 347 87 l 347 174 l 347 260 l 347 347 l 347 434 l 347 521 l 347 608 l 347 694 l 347 781 l 434 781 l 434 694 l 434 608 l 434 521 l 434 434 l 434 347 l 434 260 l 434 174 l 434 87 l 347 87 m 87 87 l 0 87 l 0 174 l 0 260 l 0 347 l 0 434 l 0 521 l 0 608 l 0 694 l 0 781 l 87 781 l 87 694 l 87 608 l 87 521 l 87 434 l 87 347 l 87 260 l 87 174 l 87 87 m 347 781 l 260 781 l 174 781 l 87 781 l 87 868 l 174 868 l 260 868 l 347 868 l 347 781 z "},"Ü":{"ha":521,"x_min":0,"x_max":434,"o":"m 260 955 l 260 1042 l 347 1042 l 347 955 l 260 955 m 87 955 l 87 1042 l 174 1042 l 174 955 l 87 955 m 260 87 l 347 87 l 347 0 l 260 0 l 174 0 l 174 87 l 260 87 m 347 87 l 347 174 l 347 260 l 347 347 l 347 434 l 347 521 l 347 608 l 347 694 l 347 781 l 347 868 l 434 868 l 434 781 l 434 694 l 434 608 l 434 521 l 434 434 l 434 347 l 434 260 l 434 174 l 434 87 l 347 87 m 174 87 l 87 87 l 87 174 l 174 174 l 174 87 m 87 174 l 0 174 l 0 260 l 0 347 l 0 434 l 0 521 l 0 608 l 0 694 l 0 781 l 0 868 l 87 868 l 87 781 l 87 694 l 87 608 l 87 521 l 87 434 l 87 347 l 87 260 l 87 174 z "},"æ":{"ha":868,"x_min":0,"x_max":781,"o":"m 608 87 l 694 87 l 694 0 l 608 0 l 521 0 l 434 0 l 434 87 l 521 87 l 608 87 m 260 87 l 347 87 l 347 0 l 260 0 l 174 0 l 87 0 l 87 87 l 174 87 l 260 87 m 694 87 l 694 174 l 781 174 l 781 87 l 694 87 m 434 87 l 347 87 l 347 174 l 347 260 l 260 260 l 174 260 l 87 260 l 87 174 l 87 87 l 0 87 l 0 174 l 0 260 l 87 260 l 87 347 l 174 347 l 260 347 l 347 347 l 347 434 l 347 521 l 434 521 l 434 434 l 434 347 l 521 347 l 608 347 l 694 347 l 694 434 l 694 521 l 781 521 l 781 434 l 781 347 l 781 260 l 694 260 l 608 260 l 521 260 l 434 260 l 434 174 l 434 87 m 694 521 l 608 521 l 521 521 l 434 521 l 434 608 l 521 608 l 608 608 l 694 608 l 694 521 m 347 521 l 260 521 l 174 521 l 87 521 l 0 521 l 0 608 l 87 608 l 174 608 l 260 608 l 347 608 l 347 521 z "},"ö":{"ha":521,"x_min":0,"x_max":434,"o":"m 260 694 l 260 781 l 347 781 l 347 694 l 260 694 m 87 694 l 87 781 l 174 781 l 174 694 l 87 694 m 260 87 l 347 87 l 347 0 l 260 0 l 174 0 l 87 0 l 87 87 l 174 87 l 260 87 m 347 87 l 347 174 l 347 260 l 347 347 l 347 434 l 347 521 l 434 521 l 434 434 l 434 347 l 434 260 l 434 174 l 434 87 l 347 87 m 87 87 l 0 87 l 0 174 l 0 260 l 0 347 l 0 434 l 0 521 l 87 521 l 87 434 l 87 347 l 87 260 l 87 174 l 87 87 m 347 521 l 260 521 l 174 521 l 87 521 l 87 608 l 174 608 l 260 608 l 347 608 l 347 521 z "},"ü":{"ha":521,"x_min":0,"x_max":434,"o":"m 347 0 l 347 87 l 260 87 l 260 0 l 174 0 l 87 0 l 87 87 l 174 87 l 260 87 l 260 174 l 347 174 l 347 260 l 347 347 l 347 434 l 347 521 l 347 608 l 434 608 l 434 521 l 434 434 l 434 347 l 434 260 l 434 174 l 434 87 l 434 0 l 347 0 m 260 694 l 260 781 l 347 781 l 347 694 l 260 694 m 87 694 l 87 781 l 174 781 l 174 694 l 87 694 m 87 87 l 0 87 l 0 174 l 0 260 l 0 347 l 0 434 l 0 521 l 0 608 l 87 608 l 87 521 l 87 434 l 87 347 l 87 260 l 87 174 l 87 87 z "},"":{"ha":521,"x_min":0,"x_max":434,"o":"m 347 0 l 347 87 l 347 174 l 347 260 l 434 260 l 434 174 l 434 87 l 434 0 l 347 0 m 0 0 l 0 87 l 0 174 l 0 260 l 0 347 l 0 434 l 0 521 l 0 608 l 0 694 l 0 781 l 0 868 l 0 955 l 87 955 l 87 868 l 87 781 l 87 694 l 87 608 l 87 521 l 174 521 l 174 434 l 260 434 l 260 347 l 347 347 l 347 260 l 260 260 l 260 347 l 174 347 l 174 434 l 87 434 l 87 347 l 87 260 l 87 174 l 87 87 l 87 0 l 0 0 m 174 521 l 174 608 l 260 608 l 260 521 l 174 521 m 260 608 l 260 694 l 347 694 l 347 608 l 260 608 m 347 694 l 347 781 l 347 868 l 434 868 l 434 781 l 434 694 l 347 694 m 347 868 l 260 868 l 174 868 l 174 955 l 87 955 l 87 1042 l 174 1042 l 260 1042 l 260 955 l 347 955 l 347 868 m 347 955 l 347 1042 l 434 1042 l 434 955 l 347 955 z "},"":{"ha":521,"x_min":0,"x_max":434,"o":"m 347 0 l 347 87 l 434 87 l 434 0 l 347 0 m 0 0 l 0 87 l 0 174 l 0 260 l 0 347 l 0 434 l 0 521 l 0 608 l 0 694 l 0 781 l 0 868 l 0 955 l 87 955 l 87 868 l 87 781 l 87 694 l 87 608 l 87 521 l 87 434 l 87 347 l 174 347 l 174 260 l 260 260 l 260 174 l 347 174 l 347 87 l 260 87 l 260 174 l 174 174 l 174 260 l 87 260 l 87 174 l 87 87 l 87 0 l 0 0 m 174 347 l 174 434 l 260 434 l 260 347 l 174 347 m 260 434 l 260 521 l 347 521 l 347 434 l 260 434 m 347 521 l 347 608 l 434 608 l 434 521 l 347 521 m 260 868 l 174 868 l 174 955 l 87 955 l 87 1042 l 174 1042 l 260 1042 l 260 955 l 347 955 l 347 868 l 260 868 m 347 955 l 347 1042 l 434 1042 l 434 955 l 347 955 z "}}}
